<?xml version="1.0" standalone="no"?>
<!DOCTYPE svg PUBLIC "-//W3C//DTD SVG 20010904//EN"
 "http://www.w3.org/TR/2001/REC-SVG-20010904/DTD/svg10.dtd">
<svg version="1.0" xmlns="http://www.w3.org/2000/svg"
 width="1600.000000pt" height="1200.000000pt" viewBox="0 0 1600.000000 1200.000000"
 preserveAspectRatio="xMidYMid meet">

<g transform="translate(0.000000,1200.000000) scale(0.100000,-0.100000)"
fill="#000000" stroke="none">
<path d="M6083 9180 c-333 -87 -533 -344 -533 -684 0 -151 47 -322 119 -435
43 -66 131 -148 187 -173 39 -17 62 -20 138 -16 143 7 203 46 300 194 118 181
220 228 527 243 271 13 306 37 297 200 -18 293 -289 579 -635 667 -122 31
-291 33 -400 4z"/>
<path d="M8300 8659 c439 -200 725 -416 1132 -857 493 -534 644 -646 1431
-1061 314 -165 389 -209 487 -281 96 -71 180 -164 180 -199 0 -20 -100 -9
-265 29 -381 88 -449 98 -524 80 -28 -6 -59 -22 -72 -37 -21 -22 -24 -34 -24
-111 0 -80 3 -94 37 -165 67 -140 170 -246 304 -311 129 -63 316 -79 462 -38
40 11 74 16 77 12 15 -25 -93 -486 -159 -679 -47 -136 -55 -159 -49 -150 2 3
56 -1 121 -8 224 -25 547 -64 563 -69 29 -8 109 288 140 516 20 141 17 469 -5
615 -99 660 -465 1257 -1070 1741 -701 562 -1679 916 -2701 978 -72 5 -85 4
-65 -5z"/>
<path d="M5144 7844 c-645 -451 -1071 -1022 -1230 -1650 -55 -217 -68 -332
-68 -579 -1 -234 10 -353 50 -550 18 -90 67 -271 78 -292 1 -1 23 3 49 8 104
19 703 90 733 87 l32 -4 -20 51 c-119 301 -144 550 -107 1095 47 714 238 1359
535 1813 35 53 62 97 60 97 -2 0 -52 -34 -112 -76z"/>
<path d="M8255 7844 c-325 -49 -595 -187 -803 -410 -174 -185 -282 -395 -331
-642 -54 -271 -28 -537 74 -749 35 -71 63 -110 125 -176 163 -172 362 -261
700 -314 164 -25 681 -25 855 0 294 44 476 118 613 250 145 140 218 318 243
596 62 673 -371 1269 -1031 1422 -83 20 -370 34 -445 23z m658 -484 c260 -55
425 -168 515 -352 56 -116 76 -213 75 -373 0 -110 -5 -144 -27 -218 -110 -370
-440 -622 -842 -644 -364 -20 -698 151 -876 450 -87 146 -123 318 -107 512 16
188 66 302 184 421 67 68 96 89 175 127 173 83 320 108 610 102 150 -3 218 -9
293 -25z"/>
<path d="M8955 6751 c-179 -47 -271 -221 -196 -370 89 -174 357 -212 499 -70
55 54 76 105 76 179 0 106 -56 190 -159 239 -53 25 -167 36 -220 22z"/>
<path d="M14126 1910 c-73 -22 -116 -105 -96 -181 24 -88 98 -118 142 -58 29
39 67 59 112 59 50 0 66 9 66 37 0 56 -61 124 -128 143 -43 11 -56 12 -96 0z"/>
<path d="M14610 1801 c0 -3 24 -19 53 -36 28 -16 101 -80 162 -141 109 -109
129 -124 328 -235 43 -24 83 -52 89 -63 9 -17 8 -18 -23 -12 -19 4 -58 10 -86
13 -63 7 -75 -9 -50 -62 23 -48 61 -70 119 -69 33 0 48 -4 48 -12 0 -7 -12
-50 -26 -95 -26 -83 -66 -139 -98 -139 -9 0 -16 -6 -16 -14 0 -21 -61 -70
-123 -99 -163 -78 -446 -107 -680 -72 -229 34 -367 118 -436 264 -24 52 -26
66 -25 181 1 145 26 264 74 361 17 33 29 63 27 65 -9 9 -114 -85 -154 -137
-86 -111 -117 -201 -116 -334 1 -149 52 -266 158 -363 142 -130 392 -202 700
-202 508 0 845 231 845 580 0 271 -226 503 -578 595 -71 18 -192 34 -192 26z"/>
<path d="M14553 1631 c-120 -31 -206 -139 -207 -261 -1 -75 21 -130 64 -160
90 -64 326 -66 408 -4 44 34 63 81 63 159 0 71 -17 119 -61 175 -55 70 -182
113 -267 91z m206 -109 c55 -27 76 -64 76 -131 0 -74 -30 -121 -99 -156 -75
-38 -155 -29 -216 22 -43 36 -60 74 -60 133 0 68 22 107 73 131 56 25 178 26
226 1z"/>
<path d="M14710 1407 c-37 -19 -35 -75 3 -97 24 -13 30 -13 55 0 70 39 14 133
-58 97z"/>
</g>
</svg>
